# xmcd
#
# Track frame offsets: 
#        150
#        12142
#        24321
#        35300
#        50545
#        63528
#        76194
#        88977
#        101747
#        118007
#        130872
#        145849
#        160018
#        175384
#
# Disc length: 2603 seconds
#
# Revision: 0
# Processed by: cddbd v1.5.2PL0 Copyright (c) Steve Scherf et al.
# Submitted via: ExactAudioCopyFreeDBPlugin 1.0
#
DISCID=b20a290e
DTITLE=Eve And The Exiles - Blow Your Mind
DYEAR=2008
DGENRE=Blues
TTITLE0=I Could Blow Your Mind
TTITLE1=Got My Head Spinnin' 
TTITLE2=Key To My Door
TTITLE3=I Don't Want
TTITLE4=Honey I Need
TTITLE5=Starvation
TTITLE6=You Better Move On
TTITLE7=Whatever You Do
TTITLE8=Night Of The Phantom
TTITLE9=Don't Take My Baby
TTITLE10=I'll Come Runnin'
TTITLE11=Go For A Drive
TTITLE12=I'll Come To You
TTITLE13=All I Want
EXTD=
EXTT0=
EXTT1=
EXTT2=
EXTT3=
EXTT4=
EXTT5=
EXTT6=
EXTT7=
EXTT8=
EXTT9=
EXTT10=
EXTT11=
EXTT12=
EXTT13=
PLAYORDER=
